<svg version="1.2" xmlns="http://www.w3.org/2000/svg" viewBox="0 0 512 512" width="1024" height="1024"><style>.a{opacity:.9;stroke:#000;stroke-miterlimit:10;stroke-width:55}</style><path  d="m140.4 412.3c33.9 0 55.8-14.7 67-36.1h1.8v31.8h60.2v-154.5c0-54.6-46.2-77.6-97.2-77.6-54.9 0-91 26.3-99.8 68l58.8 4.8c4.3-15.2 17.9-26.4 40.7-26.4 21.6 0 34 10.9 34 29.7v0.9c0 14.8-15.7 16.7-55.5 20.6-45.3 4.1-86.1 19.4-86.1 70.5 0 45.4 32.4 68.3 76.1 68.3zm18.2-43.8c-19.5 0-33.6-9.1-33.6-26.6 0-17.9 14.8-26.7 37.2-29.8 13.9-1.9 36.5-5.2 44.1-10.3v24.3c0 24-19.8 42.4-47.7 42.4zm185.4 39.5h63.5v-229.1h-63.5zm31.9-258.6c18.9 0 34.5-14.5 34.5-32.2 0-17.6-15.6-32.1-34.5-32.1-18.8 0-34.3 14.5-34.3 32.1 0 17.7 15.5 32.2 34.3 32.2z"/><path fill-rule="evenodd" class="a" d="m18 286h476z"/></svg>
